HIERARCHY
ROOT joint_Root
{
	OFFSET 0.0 0.0 0.0
	CHANNELS 6 Xposition Yposition Zposition Zrotation Xrotation Yrotation 
	JOINT Hips
	{
		OFFSET -17.1583 93.1646 452.98
		CHANNELS 6 Xposition Yposition Zposition Zrotation Xrotation Yrotation 
		JOINT Spine
		{
			OFFSET 15.7357 0.0 0.0
			CHANNELS 6 Xposition Yposition Zposition Zrotation Xrotation Yrotation 
			JOINT Chest
			{
				OFFSET 8.98455 -0.406207 0.0
				CHANNELS 6 Xposition Yposition Zposition Zrotation Xrotation Yrotation 
				JOINT Neck
				{
					OFFSET 16.3773 0.0 0.0
					CHANNELS 6 Xposition Yposition Zposition Zrotation Xrotation Yrotation 
					JOINT Head
					{
						OFFSET 6.45672 0.0 0.0
						CHANNELS 6 Xposition Yposition Zposition Zrotation Xrotation Yrotation 
						End Site
						{
							OFFSET 0.0 0.0 0.0
						}
					}
				}
				JOINT Shoulder_L
				{
					OFFSET 12.9942 -0.242716 4.98039
					CHANNELS 6 Xposition Yposition Zposition Zrotation Xrotation Yrotation 
					JOINT UpperArm_L
					{
						OFFSET 5.34809 0.0 0.0
						CHANNELS 6 Xposition Yposition Zposition Zrotation Xrotation Yrotation 
						JOINT LowerArm_L
						{
							OFFSET 24.3286 1.87007e-05 0.0
							CHANNELS 6 Xposition Yposition Zposition Zrotation Xrotation Yrotation 
							JOINT Hand_L
							{
								OFFSET 22.2916 0.0 0.0
								CHANNELS 6 Xposition Yposition Zposition Zrotation Xrotation Yrotation 
								End Site
								{
									OFFSET 0.0 0.0 0.0
								}
							}
						}
					}
				}
				JOINT Shoulder_R
				{
					OFFSET 12.9945 -0.242716 -4.98039
					CHANNELS 6 Xposition Yposition Zposition Zrotation Xrotation Yrotation 
					JOINT UpperArm_R
					{
						OFFSET -5.34813 0.0 0.0
						CHANNELS 6 Xposition Yposition Zposition Zrotation Xrotation Yrotation 
						JOINT LowerArm_R
						{
							OFFSET -24.3289 0.000322201 0.0
							CHANNELS 6 Xposition Yposition Zposition Zrotation Xrotation Yrotation 
							JOINT Hand_R
							{
								OFFSET -22.2915 -0.000108084 0.0
								CHANNELS 6 Xposition Yposition Zposition Zrotation Xrotation Yrotation 
								End Site
								{
									OFFSET 0.0 0.0 0.0
								}
							}
						}
					}
				}
			}
		}
		JOINT UpperLeg_L
		{
			OFFSET -2.19248 -6.46944 0.0
			CHANNELS 6 Xposition Yposition Zposition Zrotation Xrotation Yrotation 
			JOINT LowerLeg_L
			{
				OFFSET 39.0811 0.0 -1.23785e-05
				CHANNELS 6 Xposition Yposition Zposition Zrotation Xrotation Yrotation 
				JOINT Foot_L
				{
					OFFSET 40.9854 0.0 -1.26872e-05
					CHANNELS 6 Xposition Yposition Zposition Zrotation Xrotation Yrotation 
					JOINT Toes_L
					{
						OFFSET 11.7543 0.0 0.0
						CHANNELS 6 Xposition Yposition Zposition Zrotation Xrotation Yrotation 
						End Site
						{
							OFFSET 0.0 0.0 0.0
						}
					}
				}
			}
		}
		JOINT UpperLeg_R
		{
			OFFSET -2.19251 6.46944 0.0
			CHANNELS 6 Xposition Yposition Zposition Zrotation Xrotation Yrotation 
			JOINT LowerLeg_R
			{
				OFFSET -39.0811 -0.00228153 -0.0401928
				CHANNELS 6 Xposition Yposition Zposition Zrotation Xrotation Yrotation 
				JOINT Foot_R
				{
					OFFSET -40.9854 0.0 0.0
					CHANNELS 6 Xposition Yposition Zposition Zrotation Xrotation Yrotation 
					JOINT Toes_R
					{
						OFFSET -11.7543 0.0 0.0
						CHANNELS 6 Xposition Yposition Zposition Zrotation Xrotation Yrotation 
						End Site
						{
							OFFSET 0.0 0.0 0.0
						}
					}
				}
			}
		}
	}
}
MOTION
Frames:	5
Frame Time:	0.0333333
0.000000 0.000000 0.000000 0.000000 0.000000 -0.000000 -2.421420 92.583900 2.505500 88.765800 4.287330 4.169610 15.735700 0.000005 -0.000001 67.878400 86.155100 -65.414600 8.984550 -0.406207 -0.000000 -0.571110 -3.074300 4.910880 16.377300 -0.000001 -0.000001 5.083400 2.176770 -2.840900 6.456720 -0.000001 -0.000000 3.973610 3.160520 -5.022700 12.994200 -0.242716 4.980390 -92.683800 8.634250 -72.659400 5.348090 -0.000007 -0.000001 -75.038900 21.097600 1.826990 24.328600 0.000019 0.000005 11.395500 27.117500 -23.854000 22.291600 -0.000001 0.000005 -3.224090 5.040600 6.443760 12.994500 -0.242716 -4.980390 89.179700 2.956480 -74.484700 -5.348130 -0.000001 -0.000004 -69.101200 24.298200 -6.728150 -24.328900 0.000322 -0.000009 -0.751964 -3.416980 -12.402200 -22.291500 -0.000108 -0.000004 -13.943700 5.076530 5.646550 -2.192480 -6.469440 -0.000000 -171.766000 -4.750590 3.233650 39.081100 -0.000007 -0.000012 0.014756 -0.052999 15.558300 40.985400 -0.000006 -0.000013 -1.473080 17.760500 -69.566600 11.754300 -0.000000 0.000003 -0.002038 0.196824 -8.591410 -2.192510 6.469440 -0.000001 178.290000 7.533900 -175.263000 -39.081100 -0.002282 -0.040193 0.077047 -0.266382 15.468800 -40.985400 0.000008 0.000006 -2.374590 1.931200 -71.929500 -11.754300 -0.000006 -0.000006 -0.011038 0.278907 -5.239930
0.000000 0.000000 0.000000 0.000000 0.000000 -0.000000 -2.255280 92.598600 2.558430 88.729100 4.343460 3.999690 15.735700 0.000005 -0.000001 66.635400 86.162900 -64.157600 8.984550 -0.406207 -0.000000 -0.646194 -3.224610 4.936020 16.377300 -0.000001 -0.000001 5.182690 2.300340 -3.154200 6.456720 -0.000001 -0.000000 3.879450 3.253620 -5.677750 12.994200 -0.242716 4.980390 -92.688000 8.622770 -72.612500 5.348090 -0.000007 -0.000001 -74.904100 20.761200 1.984580 24.328600 0.000019 0.000005 11.553800 26.898500 -24.316600 22.291600 -0.000001 0.000005 -3.223660 5.040330 6.449380 12.994500 -0.242716 -4.980390 89.142300 2.970870 -73.888800 -5.348130 -0.000001 -0.000004 -68.632400 19.928400 -7.255300 -24.328900 0.000322 -0.000009 -0.840867 -4.176450 -11.383000 -22.291500 -0.000108 -0.000004 -13.829700 5.067590 5.846910 -2.192480 -6.469440 -0.000000 -171.869000 -4.743670 3.082510 39.081100 -0.000007 -0.000012 0.018382 -0.065835 15.601000 40.985400 -0.000006 -0.000013 -1.342910 17.714500 -69.737000 11.754300 -0.000000 0.000003 -0.002068 0.197196 -8.576270 -2.192510 6.469440 -0.000001 178.096000 7.920060 -175.254000 -39.081100 -0.002282 -0.040193 0.067211 -0.234989 15.208200 -40.985400 0.000008 0.000006 -2.733780 2.437430 -71.710300 -11.754300 -0.000006 -0.000006 -0.010996 0.278603 -5.252400
0.000000 0.000000 0.000000 0.000000 0.000000 -0.000000 -2.041920 92.615800 2.612900 88.741700 4.218700 3.808380 15.735700 0.000005 -0.000001 65.018700 86.190400 -62.535600 8.984550 -0.406207 -0.000000 -0.780956 -3.402160 4.941850 16.377300 -0.000001 -0.000001 5.328090 2.466930 -3.501650 6.456720 -0.000001 -0.000000 3.898060 3.570060 -6.717870 12.994200 -0.242716 4.980390 -92.676700 8.579770 -72.600200 5.348090 -0.000007 -0.000001 -74.830400 19.839700 2.370770 24.328600 0.000019 0.000005 11.622300 26.553600 -24.706700 22.291600 -0.000001 0.000005 -3.417510 5.041780 6.417760 12.994500 -0.242716 -4.980390 89.107200 2.976320 -73.294300 -5.348130 -0.000001 -0.000004 -67.839100 13.780700 -8.207150 -24.328900 0.000322 -0.000009 -0.994860 -5.970650 -9.472730 -22.291500 -0.000108 -0.000004 -13.726400 5.055490 6.115700 -2.192480 -6.469440 -0.000000 -172.029000 -4.924450 3.003760 39.081100 -0.000007 -0.000012 0.019565 -0.070441 15.523000 40.985400 -0.000006 -0.000013 -1.190420 17.699400 -69.738400 11.754300 -0.000000 0.000003 -0.002186 0.198653 -8.517000 -2.192510 6.469440 -0.000001 177.838000 8.188900 -175.289000 -39.081100 -0.002282 -0.040193 0.059482 -0.209998 14.970300 -40.985400 0.000008 0.000006 -3.107400 2.915780 -71.480200 -11.754300 -0.000006 -0.000006 -0.010659 0.276162 -5.352290
0.000000 0.000000 0.000000 0.000000 0.000000 -0.000000 -1.818860 92.637200 2.655040 88.699700 4.252880 3.569630 15.735700 0.000005 -0.000001 62.231100 86.200900 -59.727700 8.984550 -0.406207 -0.000000 -0.956481 -3.729760 4.975120 16.377300 -0.000001 -0.000001 5.371390 2.677090 -3.902990 6.456720 -0.000001 -0.000000 4.035910 3.956760 -8.064160 12.994200 -0.242716 4.980390 -92.673100 8.529400 -72.526500 5.348090 -0.000007 -0.000001 -74.662600 18.747400 2.653830 24.328600 0.000019 0.000005 11.578000 26.309800 -24.807600 22.291600 -0.000001 0.000005 -3.648420 5.044790 6.351730 12.994500 -0.242716 -4.980390 89.120400 2.820860 -72.673300 -5.348130 -0.000001 -0.000004 -66.670200 6.423670 -9.452030 -24.328900 0.000322 -0.000009 -1.220550 -10.164300 -6.886450 -22.291500 -0.000108 -0.000004 -13.279400 5.049360 6.250770 -2.192480 -6.469440 -0.000000 -172.180000 -4.897070 2.800940 39.081100 -0.000007 -0.000012 0.022902 -0.082386 15.535700 40.985400 -0.000006 -0.000013 -1.016680 17.640400 -69.876100 11.754300 -0.000000 0.000003 -0.001974 0.196020 -8.624100 -2.192510 6.469440 -0.000001 177.586000 8.689080 -175.309000 -39.081100 -0.002282 -0.040193 0.048555 -0.173236 14.630800 -40.985400 0.000008 0.000006 -3.643740 3.515110 -71.179600 -11.754300 -0.000006 -0.000006 -0.011148 0.279691 -5.207840
0.000000 0.000000 0.000000 0.000000 0.000000 -0.000000 -1.539940 92.666200 2.707580 88.611400 4.151130 3.169250 15.735700 0.000005 -0.000001 60.181300 86.306700 -57.674500 8.984550 -0.406207 -0.000000 -1.268210 -3.869810 4.970540 16.377300 -0.000001 -0.000001 5.304860 2.858840 -4.297120 6.456720 -0.000001 -0.000000 4.305510 4.251990 -9.672270 12.994200 -0.242716 4.980390 -92.661900 8.540170 -72.616200 5.348090 -0.000007 -0.000001 -74.227300 17.650800 2.845460 24.328600 0.000019 0.000005 11.620500 26.403900 -24.817500 22.291600 -0.000001 0.000005 -3.802230 5.041430 6.425550 12.994500 -0.242716 -4.980390 89.218500 2.405420 -71.995800 -5.348130 -0.000001 -0.000004 -65.313400 -2.311650 -11.103800 -24.328900 0.000322 -0.000009 -0.891120 -16.565600 -3.124810 -22.291500 -0.000108 -0.000004 -12.684300 5.023440 6.817090 -2.192480 -6.469440 -0.000000 -172.333000 -4.912870 2.454370 39.081100 -0.000007 -0.000012 0.024978 -0.089894 15.528500 40.985400 -0.000006 -0.000013 -0.837483 17.461900 -69.943800 11.754300 -0.000000 0.000003 -0.002021 0.196603 -8.600410 -2.192510 6.469440 -0.000001 177.416000 8.901240 -175.460000 -39.081100 -0.002282 -0.040193 0.036831 -0.132809 14.156700 -40.985400 0.000008 0.000006 -4.309800 3.998160 -70.739700 -11.754300 -0.000006 -0.000006 -0.010716 0.276577 -5.335290
